<?xml version="1.0" encoding="UTF-8"?>
<svg xmlns="http://www.w3.org/2000/svg" id="Layer_1" data-name="Layer 1" viewBox="0 0 24 24">
  <path
    d="M5,5c1.103,0,2-.897,2-2s-.897-2-2-2-2,.897-2,2,.897,2,2,2Zm0-3c.551,0,1,.448,1,1s-.449,1-1,1-1-.448-1-1,.449-1,1-1Zm7.115,3c1.378,0,2.5-1.121,2.5-2.5s-1.122-2.5-2.5-2.5-2.5,1.121-2.5,2.5,1.122,2.5,2.5,2.5Zm0-4c.827,0,1.5,.673,1.5,1.5s-.673,1.5-1.5,1.5-1.5-.673-1.5-1.5,.673-1.5,1.5-1.5Zm6.885,4c1.103,0,2-.897,2-2s-.897-2-2-2-2,.897-2,2,.897,2,2,2Zm0-3c.551,0,1,.448,1,1s-.449,1-1,1-1-.448-1-1,.449-1,1-1Zm4,10c0,1.412-.277,2.758-.764,4h-4.905c.403-1.248,.669-2.589,.669-4h-1c0,1.407-.292,2.753-.732,4H7.73c-.438-1.246-.73-2.593-.73-4h-1c0,1.411,.265,2.752,.669,4H1.764c-.487-1.242-.764-2.588-.764-4H0c0,6.617,5.383,12,12,12s12-5.383,12-12h-1Zm-7.123,5c-1.229,2.839-3.116,4.991-3.878,5.788-.763-.797-2.65-2.948-3.879-5.788h7.757Zm-13.663,0H7.029c1.067,2.669,2.712,4.781,3.732,5.925-3.734-.421-6.901-2.719-8.546-5.925Zm11.026,5.925c1.019-1.144,2.664-3.256,3.732-5.925h4.814c-1.645,3.206-4.812,5.504-8.546,5.925Zm-4.24-12.925h-1v-2c0-1.103,.897-2,2-2h4c1.103,0,2,.897,2,2v2h-1v-2c0-.552-.449-1-1-1h-4c-.551,0-1,.448-1,1v2Zm-7,0H1v-2c0-1.103,.897-2,2-2h3.556c-.181,.31-.322,.644-.414,1H3c-.551,0-1,.448-1,1v2ZM21,6c1.103,0,2,.897,2,2v2h-1v-2c0-.552-.449-1-1-1h-3.142c-.093-.356-.233-.69-.414-1h3.556Z" />
</svg>